<?xml version="1.0" encoding="UTF-8" standalone="no"?>
<!DOCTYPE svg PUBLIC "-//W3C//DTD SVG 1.1//EN" "http://www.w3.org/Graphics/SVG/1.1/DTD/svg11.dtd">
<svg width="100%" height="100%" viewBox="0 0 2160 1592" version="1.1" xmlns="http://www.w3.org/2000/svg" xmlns:xlink="http://www.w3.org/1999/xlink" xml:space="preserve" style="fill-rule:evenodd;clip-rule:evenodd;stroke-linecap:round;stroke-linejoin:round;stroke-miterlimit:1.5;">
    <g transform="matrix(1,0,0,1,0,-210)">
        <g id="Artboard1" transform="matrix(1.5,0,0,1.76889,0,210)">
            <rect x="0" y="0" width="1440" height="900" style="fill:rgb(16,21,29);"/>
            <clipPath id="_clip1">
                <rect x="0" y="0" width="1440" height="900"/>
            </clipPath>
            <g clip-path="url(#_clip1)">
                <g transform="matrix(0.666667,0,0,1.91771,1.33333,-5.68434e-14)">
                    <g transform="matrix(1.17907,0,0,0.199859,16.1132,25.6476)">
                        <path d="M264.519,333.304C264.519,307.254 252.358,286.104 237.379,286.104L94.894,286.104L94.894,408.529C94.894,434.58 107.055,455.729 122.034,455.729L264.519,455.729L264.519,333.304Z" style="fill:rgb(32,40,48);"/>
                    </g>
                    <g transform="matrix(1.00875,0,0,0.297371,-1.11971,-617.385)">
                        <circle cx="128" cy="2411.68" r="17.844" style="fill:rgb(32,40,48);stroke:rgb(16,21,29);stroke-width:7.93px;"/>
                    </g>
                    <g transform="matrix(1,0,0,0.294792,0,-611.166)">
                        <path d="M128,2411.68C-0.995,2412.47 121.764,2606.74 0,2606.33" style="fill:none;stroke:rgb(32,40,48);stroke-width:8px;"/>
                    </g>
                    <g transform="matrix(1.00875,0,0,0.297371,-129.12,-560.003)">
                        <circle cx="128" cy="2411.68" r="17.844" style="fill:rgb(16,21,29);stroke:rgb(32,40,48);stroke-width:7.93px;"/>
                    </g>
                </g>
                <g transform="matrix(0.666667,0,0,-1.91771,1.33333,913.339)">
                    <g transform="matrix(1.17907,0,0,0.199859,16.1132,25.6476)">
                        <path d="M264.519,333.304C264.519,307.254 252.358,286.104 237.379,286.104L94.894,286.104L94.894,408.529C94.894,434.58 107.055,455.729 122.034,455.729L264.519,455.729L264.519,333.304Z" style="fill:rgb(32,40,48);"/>
                    </g>
                    <g transform="matrix(1.00875,0,0,0.297371,-1.11971,-617.385)">
                        <circle cx="128" cy="2411.68" r="17.844" style="fill:rgb(32,40,48);stroke:rgb(16,21,29);stroke-width:7.93px;"/>
                    </g>
                    <g transform="matrix(1,0,0,0.294792,0,-611.166)">
                        <path d="M128,2411.68C-0.995,2412.47 121.764,2606.74 0,2606.33" style="fill:none;stroke:rgb(32,40,48);stroke-width:8px;"/>
                    </g>
                    <g transform="matrix(1.00875,0,0,0.297371,-129.12,-560.003)">
                        <circle cx="128" cy="2411.68" r="17.844" style="fill:rgb(16,21,29);stroke:rgb(32,40,48);stroke-width:7.93px;"/>
                    </g>
                </g>
                <g transform="matrix(0.666667,0,0,-1.91771,221.333,492.736)">
                    <g transform="matrix(-1.17907,0,-0,0.199859,439.887,25.6476)">
                        <path d="M264.519,333.304C264.519,307.254 252.358,286.104 237.379,286.104L94.894,286.104L94.894,408.529C94.894,434.58 107.055,455.729 122.034,455.729L264.519,455.729L264.519,333.304Z" style="fill:rgb(32,40,48);"/>
                    </g>
                    <g transform="matrix(1.00875,0,0,0.297371,-1.11971,-617.385)">
                        <circle cx="128" cy="2411.68" r="17.844" style="fill:rgb(32,40,48);stroke:rgb(16,21,29);stroke-width:7.93px;"/>
                    </g>
                    <g transform="matrix(1,0,0,0.294792,0,-611.166)">
                        <path d="M128,2411.68C-0.995,2412.47 121.764,2606.74 0,2606.33" style="fill:none;stroke:rgb(32,40,48);stroke-width:8px;"/>
                    </g>
                    <g transform="matrix(1.00875,0,0,0.297371,-129.12,-560.003)">
                        <circle cx="128" cy="2411.68" r="17.844" style="fill:rgb(16,21,29);stroke:rgb(32,40,48);stroke-width:7.93px;"/>
                    </g>
                </g>
                <g transform="matrix(-0.666667,0,0,1.91771,1438.67,358.627)">
                    <g transform="matrix(-1.17907,0,0,0.199859,439.887,25.6476)">
                        <path d="M264.519,333.304C264.519,307.254 252.358,286.104 237.379,286.104L94.894,286.104L94.894,408.529C94.894,434.58 107.055,455.729 122.034,455.729L264.519,455.729L264.519,333.304Z" style="fill:rgb(32,40,48);"/>
                    </g>
                    <g transform="matrix(1.00875,0,0,0.297371,-1.11971,-617.385)">
                        <circle cx="128" cy="2411.68" r="17.844" style="fill:rgb(32,40,48);stroke:rgb(16,21,29);stroke-width:7.93px;"/>
                    </g>
                    <g transform="matrix(1,0,0,0.294792,0,-611.166)">
                        <path d="M128,2411.68C-0.995,2412.47 121.764,2606.74 0,2606.33" style="fill:none;stroke:rgb(32,40,48);stroke-width:8px;"/>
                    </g>
                    <g transform="matrix(1.00875,0,0,0.297371,-129.12,-560.003)">
                        <circle cx="128" cy="2411.68" r="17.844" style="fill:rgb(16,21,29);stroke:rgb(32,40,48);stroke-width:7.93px;"/>
                    </g>
                </g>
                <g transform="matrix(-0.666667,0,0,1.91771,1208,551.406)">
                    <g transform="matrix(-1.17907,0,0,0.199859,439.887,25.6476)">
                        <path d="M264.519,333.304C264.519,307.254 252.358,286.104 237.379,286.104L94.894,286.104L94.894,408.529C94.894,434.58 107.055,455.729 122.034,455.729L264.519,455.729L264.519,333.304Z" style="fill:rgb(32,40,48);"/>
                    </g>
                    <g transform="matrix(1.00875,0,0,0.297371,-1.11971,-617.385)">
                        <circle cx="128" cy="2411.68" r="17.844" style="fill:rgb(32,40,48);stroke:rgb(16,21,29);stroke-width:7.93px;"/>
                    </g>
                    <g transform="matrix(1,-0,0,-0.516434,0,1345.25)">
                        <path d="M128,2411.68C-0.995,2412.47 121.764,2606.74 0,2606.33" style="fill:none;stroke:rgb(32,40,48);stroke-width:5.61px;"/>
                    </g>
                    <g transform="matrix(1.00875,0,0,0.297371,-147.12,-717.911)">
                        <circle cx="128" cy="2411.68" r="17.844" style="fill:rgb(16,21,29);stroke:rgb(32,40,48);stroke-width:7.93px;"/>
                    </g>
                </g>
                <g transform="matrix(-0.666667,0,0,1.91771,896,476.358)">
                    <g transform="matrix(-1.17907,0,0,0.199859,49.8868,-79.2984)">
                        <path d="M264.519,333.304C264.519,307.254 252.358,286.104 237.379,286.104L94.894,286.104L94.894,408.529C94.894,434.58 107.055,455.729 122.034,455.729L264.519,455.729L264.519,333.304Z" style="fill:rgb(32,40,48);"/>
                    </g>
                    <g transform="matrix(1.00875,0,0,0.297371,-391.12,-722.331)">
                        <circle cx="128" cy="2411.68" r="17.844" style="fill:rgb(32,40,48);stroke:rgb(16,21,29);stroke-width:7.93px;"/>
                    </g>
                    <g transform="matrix(4.32813,0,0,-0.916249,-816,2204.53)">
                        <path d="M128,2411.68C-0.995,2412.47 121.764,2606.74 0,2606.33" style="fill:none;stroke:rgb(32,40,48);stroke-width:2.12px;"/>
                    </g>
                    <g transform="matrix(1.00875,0,0,0.297371,-943.12,-900.682)">
                        <circle cx="128" cy="2411.68" r="17.844" style="fill:rgb(16,21,29);stroke:rgb(32,40,48);stroke-width:7.93px;"/>
                    </g>
                </g>
                <g transform="matrix(-0.666667,0,0,1.91771,1022.67,91.6505)">
                    <g transform="matrix(-1.17907,0,0,0.199859,76.8868,-77.1605)">
                        <path d="M264.519,333.304C264.519,307.254 252.358,286.104 237.379,286.104L94.894,286.104L94.894,408.529C94.894,434.58 107.055,455.729 122.034,455.729L264.519,455.729L264.519,333.304Z" style="fill:rgb(32,40,48);"/>
                    </g>
                    <g transform="matrix(1.00875,0,0,0.297371,-364.12,-720.193)">
                        <circle cx="128" cy="2411.68" r="17.844" style="fill:rgb(32,40,48);stroke:rgb(16,21,29);stroke-width:7.93px;"/>
                    </g>
                    <g transform="matrix(-0.708333,0,0,0.294792,904,-109.698)">
                        <path d="M2160,361.843L1608,361.843" style="fill:none;stroke:rgb(32,40,48);stroke-width:9.23px;"/>
                    </g>
                    <g transform="matrix(1.00875,0,0,0.297371,-755.12,-720.193)">
                        <circle cx="128" cy="2411.68" r="17.844" style="fill:rgb(16,21,29);stroke:rgb(32,40,48);stroke-width:7.93px;"/>
                    </g>
                </g>
            </g>
        </g>
    </g>
</svg>
