<?xml version="1.0" encoding="UTF-8" standalone="no"?>
<!DOCTYPE svg PUBLIC "-//W3C//DTD SVG 1.1//EN" "http://www.w3.org/Graphics/SVG/1.1/DTD/svg11.dtd">
<svg width="100%" height="100%" viewBox="0 0 128 64" version="1.1" xmlns="http://www.w3.org/2000/svg" xmlns:xlink="http://www.w3.org/1999/xlink" xml:space="preserve" style="fill-rule:evenodd;clip-rule:evenodd;stroke-linejoin:round;stroke-miterlimit:1.41421;">
    <g id="Artboard1" transform="matrix(0.785276,0,0,0.688172,0,0)">
        <rect x="0" y="0" width="163" height="93" style="fill:none;"/>
        <clipPath id="_clip1">
            <rect x="0" y="0" width="163" height="93"/>
        </clipPath>
        <g clip-path="url(#_clip1)">
            <g transform="matrix(1.25385,0,0,1.47619,-23.8231,-22.1429)">
                <path d="M149,38.625C149,25.586 138.078,15 124.625,15L19,15L19,54.375C19,67.414 29.922,78 43.375,78L149,78L149,38.625Z" style="fill:rgb(62,76,92);"/>
            </g>
            <g transform="matrix(0.626923,0,0,0.738095,28.8385,12.1786)">
                <path d="M149,30.75C149,22.057 141.719,15 132.75,15L19,15L19,62.25C19,70.943 26.281,78 35.25,78L149,78L149,30.75Z" style="fill:rgb(17,242,222);"/>
            </g>
            <g transform="matrix(0.391827,0,0,0.922619,68.9615,3.59821)">
                <path d="M149,27.6C149,20.646 137.35,15 123,15L19,15L19,65.4C19,72.354 30.65,78 45,78L149,78L149,27.6Z" style="fill:rgb(62,76,92);"/>
            </g>
            <g transform="matrix(0.254688,0,0,0.599702,80.4812,18.6138)">
                <path d="M149,34.385C149,23.686 131.077,15 109,15L19,15L19,58.615C19,69.314 36.923,78 59,78L149,78L149,34.385Z" style="fill:white;"/>
            </g>
        </g>
    </g>
</svg>
