<?xml version="1.0" encoding="UTF-8" standalone="no"?>
<!DOCTYPE svg PUBLIC "-//W3C//DTD SVG 1.1//EN" "http://www.w3.org/Graphics/SVG/1.1/DTD/svg11.dtd">
<svg width="100%" height="100%" viewBox="0 0 128 256" version="1.1" xmlns="http://www.w3.org/2000/svg" xmlns:xlink="http://www.w3.org/1999/xlink" xml:space="preserve" style="fill-rule:evenodd;clip-rule:evenodd;stroke-linecap:round;stroke-linejoin:round;stroke-miterlimit:1.5;">
    <g id="Artboard1" transform="matrix(0.430976,0,0,0.468864,157.737,-285.538)">
        <rect x="-366" y="609" width="297" height="546" style="fill:none;"/>
        <clipPath id="_clip1">
            <rect x="-366" y="609" width="297" height="546"/>
        </clipPath>
        <g clip-path="url(#_clip1)">
            <g transform="matrix(2.28462,0,0,8.66667,-409.408,479)">
                <path d="M149,20.906C149,17.647 138.078,15 124.625,15L19,15L19,72.094C19,75.353 29.922,78 43.375,78L149,78L149,20.906Z" style="fill:rgb(62,76,92);"/>
            </g>
            <g transform="matrix(0.215843,0,5.55112e-17,0.198401,-300.168,1040.59)">
                <circle cx="82" cy="75" r="43" style="fill:rgb(17,242,222);"/>
            </g>
            <g transform="matrix(0.215843,0,5.55112e-17,0.198401,-300.168,991.026)">
                <circle cx="82" cy="75" r="43" style="fill:rgb(17,242,222);"/>
            </g>
            <g transform="matrix(0.215843,0,5.55112e-17,0.198401,-300.168,941.464)">
                <circle cx="82" cy="75" r="43" style="fill:rgb(17,242,222);"/>
            </g>
            <g transform="matrix(0.215843,0,5.55112e-17,0.198401,-300.168,891.901)">
                <circle cx="82" cy="75" r="43" style="fill:rgb(17,242,222);"/>
            </g>
            <g transform="matrix(0.215843,0,5.55112e-17,0.198401,-300.168,842.339)">
                <circle cx="82" cy="75" r="43" style="fill:rgb(17,242,222);"/>
            </g>
            <g transform="matrix(0.215843,0,5.55112e-17,0.198401,-300.168,792.776)">
                <circle cx="82" cy="75" r="43" style="fill:rgb(16,21,29);"/>
            </g>
            <g transform="matrix(0.215843,0,5.55112e-17,0.198401,-300.168,743.214)">
                <circle cx="82" cy="75" r="43" style="fill:rgb(16,21,29);"/>
            </g>
            <g transform="matrix(0.215843,0,5.55112e-17,0.198401,-300.168,693.651)">
                <circle cx="82" cy="75" r="43" style="fill:rgb(16,21,29);"/>
            </g>
            <g transform="matrix(1.39219,0,0,1.85714,-283.397,633.143)">
                <path d="M84,39.445C84,37.544 81.76,36 79,36L69,36C66.24,36 64,37.544 64,39.445L64,228.555C64,230.456 66.24,232 69,232L79,232C81.76,232 84,230.456 84,228.555L84,39.445Z" style="fill:rgb(16,21,29);"/>
            </g>
            <g transform="matrix(1.39219,0,0,1.1086,-283.397,806.805)">
                <path d="M84,41.772C84,38.586 81.76,36 79,36L69,36C66.24,36 64,38.586 64,41.772L64,226.228C64,229.414 66.24,232 69,232L79,232C81.76,232 84,229.414 84,226.228L84,41.772Z" style="fill:rgb(17,242,222);"/>
            </g>
            <g transform="matrix(0.863372,0,2.22045e-16,0.793605,-251.172,793.592)">
                <circle cx="82" cy="75" r="43" style="fill:white;stroke:rgb(62,76,92);stroke-width:21.5px;"/>
            </g>
        </g>
    </g>
</svg>
